# xmcd
#
# Track frame offsets: 
#        150
#        17918
#        32720
#        45313
#        60850
#        71973
#        90793
#        105436
#        119120
#        136745
#        158214
#
# Disc length: 2278 seconds
#
# Revision: 1
# Processed by: cddbd v1.5.2PL0 Copyright (c) Steve Scherf et al.
# Submitted via: ExactAudioCopy v0.95b4
#
DISCID=8508e40b
DTITLE=Just Country Band - Looking Back
DYEAR=1998
DGENRE=Country
TTITLE0=Chattahoochee
TTITLE1=Running out of Reasons to Run
TTITLE2=Little Bitty
TTITLE3=Always on my Mind
TTITLE4=Sold
TTITLE5=Blue Eyes crying in the Rain
TTITLE6=You ain't goin' Nowhere
TTITLE7=Much too young
TTITLE8=Past the Point of Rescue
TTITLE9=Friends in low Places
TTITLE10=Jukebox Junkie
EXTD=
EXTT0=
EXTT1=
EXTT2=
EXTT3=
EXTT4=
EXTT5=
EXTT6=
EXTT7=
EXTT8=
EXTT9=
EXTT10=
PLAYORDER=
